# MagicaVoxel @ Ephtracy

# group
o 

# material
mtllib лод для морковки среднячка.mtl
usemtl palette

# normals
vn -1 0 0
vn 1 0 0
vn 0 0 1
vn 0 0 -1
vn 0 -1 0
vn 0 1 0

# texcoords
vt 0.0917969 0.5
vt 0.904297 0.5

# verts
v -1.7 0.2 1.7
v -1.7 0.2 1.4
v -1.7 0.2 -1.19209e-07
v -1.7 0.2 -0.3
v -1.7 0.2 -1.4
v -1.7 0.2 -1.7
v -1.7 0.3 1.7
v -1.7 0.3 1.4
v -1.7 0.3 -1.19209e-07
v -1.7 0.3 -0.3
v -1.7 0.3 -1.4
v -1.7 0.3 -1.7
v -1.6 0.3 1.6
v -1.6 0.3 1.5
v -1.6 0.3 -0.1
v -1.6 0.3 -0.2
v -1.6 0.3 -1.5
v -1.6 0.3 -1.6
v -1.6 1 1.6
v -1.6 1 1.5
v -1.6 1 -0.1
v -1.6 1 -0.2
v -1.6 1 -1.5
v -1.6 1 -1.6
v -0.2 0.2 1.7
v -0.2 0.2 1.4
v -0.2 0.2 -1.19209e-07
v -0.2 0.2 -0.3
v -0.2 0.2 -1.4
v -0.2 0.2 -1.7
v -0.2 0.3 1.7
v -0.2 0.3 1.4
v -0.2 0.3 -1.19209e-07
v -0.2 0.3 -0.3
v -0.2 0.3 -1.4
v -0.2 0.3 -1.7
v -0.0999999 0.3 1.6
v -0.0999999 0.3 1.5
v -0.0999999 0.3 -0.1
v -0.0999999 0.3 -0.2
v -0.0999999 0.3 -1.5
v -0.0999999 0.3 -1.6
v -0.0999999 1 1.6
v -0.0999999 1 1.5
v -0.0999999 1 -0.1
v -0.0999999 1 -0.2
v -0.0999999 1 -1.5
v -0.0999999 1 -1.6
v 1.4 0.2 1.7
v 1.4 0.2 1.4
v 1.4 0.2 -1.19209e-07
v 1.4 0.2 -0.3
v 1.4 0.2 -1.4
v 1.4 0.2 -1.7
v 1.4 0.3 1.7
v 1.4 0.3 1.4
v 1.4 0.3 -1.19209e-07
v 1.4 0.3 -0.3
v 1.4 0.3 -1.4
v 1.4 0.3 -1.7
v 1.5 0.3 1.6
v 1.5 0.3 1.5
v 1.5 0.3 -0.1
v 1.5 0.3 -0.2
v 1.5 0.3 -1.5
v 1.5 0.3 -1.6
v 1.5 1 1.6
v 1.5 1 1.5
v 1.5 1 -0.1
v 1.5 1 -0.2
v 1.5 1 -1.5
v 1.5 1 -1.6
v -1.5 0.3 1.6
v -1.5 0.3 1.5
v -1.5 0.3 -0.1
v -1.5 0.3 -0.2
v -1.5 0.3 -1.5
v -1.5 0.3 -1.6
v -1.5 1 1.6
v -1.5 1 1.5
v -1.5 1 -0.1
v -1.5 1 -0.2
v -1.5 1 -1.5
v -1.5 1 -1.6
v -1.4 0.2 1.7
v -1.4 0.2 1.4
v -1.4 0.2 -1.19209e-07
v -1.4 0.2 -0.3
v -1.4 0.2 -1.4
v -1.4 0.2 -1.7
v -1.4 0.3 1.7
v -1.4 0.3 1.4
v -1.4 0.3 -1.19209e-07
v -1.4 0.3 -0.3
v -1.4 0.3 -1.4
v -1.4 0.3 -1.7
v 1.19209e-07 0.3 1.6
v 1.19209e-07 0.3 1.5
v 1.19209e-07 0.3 -0.1
v 1.19209e-07 0.3 -0.2
v 1.19209e-07 0.3 -1.5
v 1.19209e-07 0.3 -1.6
v 1.19209e-07 1 1.6
v 1.19209e-07 1 1.5
v 1.19209e-07 1 -0.1
v 1.19209e-07 1 -0.2
v 1.19209e-07 1 -1.5
v 1.19209e-07 1 -1.6
v 0.1 0.2 1.7
v 0.1 0.2 1.4
v 0.1 0.2 -1.19209e-07
v 0.1 0.2 -0.3
v 0.1 0.2 -1.4
v 0.1 0.2 -1.7
v 0.1 0.3 1.7
v 0.1 0.3 1.4
v 0.1 0.3 -1.19209e-07
v 0.1 0.3 -0.3
v 0.1 0.3 -1.4
v 0.1 0.3 -1.7
v 1.6 0.3 1.6
v 1.6 0.3 1.5
v 1.6 0.3 -0.1
v 1.6 0.3 -0.2
v 1.6 0.3 -1.5
v 1.6 0.3 -1.6
v 1.6 1 1.6
v 1.6 1 1.5
v 1.6 1 -0.1
v 1.6 1 -0.2
v 1.6 1 -1.5
v 1.6 1 -1.6
v 1.7 0.2 1.7
v 1.7 0.2 1.4
v 1.7 0.2 -1.19209e-07
v 1.7 0.2 -0.3
v 1.7 0.2 -1.4
v 1.7 0.2 -1.7
v 1.7 0.3 1.7
v 1.7 0.3 1.4
v 1.7 0.3 -1.19209e-07
v 1.7 0.3 -0.3
v 1.7 0.3 -1.4
v 1.7 0.3 -1.7
v -1.7 0.2 1.7
v -1.7 0.3 1.7
v -1.4 0.2 1.7
v -1.4 0.3 1.7
v -0.2 0.2 1.7
v -0.2 0.3 1.7
v 0.1 0.2 1.7
v 0.1 0.3 1.7
v 1.4 0.2 1.7
v 1.4 0.3 1.7
v 1.7 0.2 1.7
v 1.7 0.3 1.7
v -1.6 0.3 1.6
v -1.6 1 1.6
v -1.5 0.3 1.6
v -1.5 1 1.6
v -0.0999999 0.3 1.6
v -0.0999999 1 1.6
v 1.19209e-07 0.3 1.6
v 1.19209e-07 1 1.6
v 1.5 0.3 1.6
v 1.5 1 1.6
v 1.6 0.3 1.6
v 1.6 1 1.6
v -1.7 0.2 -1.19209e-07
v -1.7 0.3 -1.19209e-07
v -1.4 0.2 -1.19209e-07
v -1.4 0.3 -1.19209e-07
v -0.2 0.2 -1.19209e-07
v -0.2 0.3 -1.19209e-07
v 0.1 0.2 -1.19209e-07
v 0.1 0.3 -1.19209e-07
v 1.4 0.2 -1.19209e-07
v 1.4 0.3 -1.19209e-07
v 1.7 0.2 -1.19209e-07
v 1.7 0.3 -1.19209e-07
v -1.6 0.3 -0.1
v -1.6 1 -0.1
v -1.5 0.3 -0.1
v -1.5 1 -0.1
v -0.0999999 0.3 -0.1
v -0.0999999 1 -0.1
v 1.19209e-07 0.3 -0.1
v 1.19209e-07 1 -0.1
v 1.5 0.3 -0.1
v 1.5 1 -0.1
v 1.6 0.3 -0.1
v 1.6 1 -0.1
v -1.7 0.2 -1.4
v -1.7 0.3 -1.4
v -1.4 0.2 -1.4
v -1.4 0.3 -1.4
v -0.2 0.2 -1.4
v -0.2 0.3 -1.4
v 0.1 0.2 -1.4
v 0.1 0.3 -1.4
v 1.4 0.2 -1.4
v 1.4 0.3 -1.4
v 1.7 0.2 -1.4
v 1.7 0.3 -1.4
v -1.6 0.3 -1.5
v -1.6 1 -1.5
v -1.5 0.3 -1.5
v -1.5 1 -1.5
v -0.0999999 0.3 -1.5
v -0.0999999 1 -1.5
v 1.19209e-07 0.3 -1.5
v 1.19209e-07 1 -1.5
v 1.5 0.3 -1.5
v 1.5 1 -1.5
v 1.6 0.3 -1.5
v 1.6 1 -1.5
v -1.6 0.3 1.5
v -1.6 1 1.5
v -1.5 0.3 1.5
v -1.5 1 1.5
v -0.0999999 0.3 1.5
v -0.0999999 1 1.5
v 1.19209e-07 0.3 1.5
v 1.19209e-07 1 1.5
v 1.5 0.3 1.5
v 1.5 1 1.5
v 1.6 0.3 1.5
v 1.6 1 1.5
v -1.7 0.2 1.4
v -1.7 0.3 1.4
v -1.4 0.2 1.4
v -1.4 0.3 1.4
v -0.2 0.2 1.4
v -0.2 0.3 1.4
v 0.1 0.2 1.4
v 0.1 0.3 1.4
v 1.4 0.2 1.4
v 1.4 0.3 1.4
v 1.7 0.2 1.4
v 1.7 0.3 1.4
v -1.6 0.3 -0.2
v -1.6 1 -0.2
v -1.5 0.3 -0.2
v -1.5 1 -0.2
v -0.0999999 0.3 -0.2
v -0.0999999 1 -0.2
v 1.19209e-07 0.3 -0.2
v 1.19209e-07 1 -0.2
v 1.5 0.3 -0.2
v 1.5 1 -0.2
v 1.6 0.3 -0.2
v 1.6 1 -0.2
v -1.7 0.2 -0.3
v -1.7 0.3 -0.3
v -1.4 0.2 -0.3
v -1.4 0.3 -0.3
v -0.2 0.2 -0.3
v -0.2 0.3 -0.3
v 0.1 0.2 -0.3
v 0.1 0.3 -0.3
v 1.4 0.2 -0.3
v 1.4 0.3 -0.3
v 1.7 0.2 -0.3
v 1.7 0.3 -0.3
v -1.6 0.3 -1.6
v -1.6 1 -1.6
v -1.5 0.3 -1.6
v -1.5 1 -1.6
v -0.0999999 0.3 -1.6
v -0.0999999 1 -1.6
v 1.19209e-07 0.3 -1.6
v 1.19209e-07 1 -1.6
v 1.5 0.3 -1.6
v 1.5 1 -1.6
v 1.6 0.3 -1.6
v 1.6 1 -1.6
v -1.7 0.2 -1.7
v -1.7 0.3 -1.7
v -1.4 0.2 -1.7
v -1.4 0.3 -1.7
v -0.2 0.2 -1.7
v -0.2 0.3 -1.7
v 0.1 0.2 -1.7
v 0.1 0.3 -1.7
v 1.4 0.2 -1.7
v 1.4 0.3 -1.7
v 1.7 0.2 -1.7
v 1.7 0.3 -1.7
v -1.7 0.2 1.7
v -1.4 0.2 1.7
v -0.2 0.2 1.7
v 0.1 0.2 1.7
v 1.4 0.2 1.7
v 1.7 0.2 1.7
v -1.7 0.2 1.4
v -1.4 0.2 1.4
v -0.2 0.2 1.4
v 0.1 0.2 1.4
v 1.4 0.2 1.4
v 1.7 0.2 1.4
v -1.7 0.2 -1.19209e-07
v -1.4 0.2 -1.19209e-07
v -0.2 0.2 -1.19209e-07
v 0.1 0.2 -1.19209e-07
v 1.4 0.2 -1.19209e-07
v 1.7 0.2 -1.19209e-07
v -1.7 0.2 -0.3
v -1.4 0.2 -0.3
v -0.2 0.2 -0.3
v 0.1 0.2 -0.3
v 1.4 0.2 -0.3
v 1.7 0.2 -0.3
v -1.7 0.2 -1.4
v -1.4 0.2 -1.4
v -0.2 0.2 -1.4
v 0.1 0.2 -1.4
v 1.4 0.2 -1.4
v 1.7 0.2 -1.4
v -1.7 0.2 -1.7
v -1.4 0.2 -1.7
v -0.2 0.2 -1.7
v 0.1 0.2 -1.7
v 1.4 0.2 -1.7
v 1.7 0.2 -1.7
v -1.7 0.3 1.7
v -1.4 0.3 1.7
v -0.2 0.3 1.7
v 0.1 0.3 1.7
v 1.4 0.3 1.7
v 1.7 0.3 1.7
v -1.6 0.3 1.6
v -1.5 0.3 1.6
v -0.0999999 0.3 1.6
v 1.19209e-07 0.3 1.6
v 1.5 0.3 1.6
v 1.6 0.3 1.6
v -1.6 0.3 1.5
v -1.5 0.3 1.5
v -0.0999999 0.3 1.5
v 1.19209e-07 0.3 1.5
v 1.5 0.3 1.5
v 1.6 0.3 1.5
v -1.7 0.3 1.4
v -1.4 0.3 1.4
v -0.2 0.3 1.4
v 0.1 0.3 1.4
v 1.4 0.3 1.4
v 1.7 0.3 1.4
v -1.7 0.3 -1.19209e-07
v -1.4 0.3 -1.19209e-07
v -0.2 0.3 -1.19209e-07
v 0.1 0.3 -1.19209e-07
v 1.4 0.3 -1.19209e-07
v 1.7 0.3 -1.19209e-07
v -1.6 0.3 -0.1
v -1.5 0.3 -0.1
v -0.0999999 0.3 -0.1
v 1.19209e-07 0.3 -0.1
v 1.5 0.3 -0.1
v 1.6 0.3 -0.1
v -1.6 0.3 -0.2
v -1.5 0.3 -0.2
v -0.0999999 0.3 -0.2
v 1.19209e-07 0.3 -0.2
v 1.5 0.3 -0.2
v 1.6 0.3 -0.2
v -1.7 0.3 -0.3
v -1.4 0.3 -0.3
v -0.2 0.3 -0.3
v 0.1 0.3 -0.3
v 1.4 0.3 -0.3
v 1.7 0.3 -0.3
v -1.7 0.3 -1.4
v -1.4 0.3 -1.4
v -0.2 0.3 -1.4
v 0.1 0.3 -1.4
v 1.4 0.3 -1.4
v 1.7 0.3 -1.4
v -1.6 0.3 -1.5
v -1.5 0.3 -1.5
v -0.0999999 0.3 -1.5
v 1.19209e-07 0.3 -1.5
v 1.5 0.3 -1.5
v 1.6 0.3 -1.5
v -1.6 0.3 -1.6
v -1.5 0.3 -1.6
v -0.0999999 0.3 -1.6
v 1.19209e-07 0.3 -1.6
v 1.5 0.3 -1.6
v 1.6 0.3 -1.6
v -1.7 0.3 -1.7
v -1.4 0.3 -1.7
v -0.2 0.3 -1.7
v 0.1 0.3 -1.7
v 1.4 0.3 -1.7
v 1.7 0.3 -1.7
v -1.6 1 1.6
v -1.5 1 1.6
v -0.0999999 1 1.6
v 1.19209e-07 1 1.6
v 1.5 1 1.6
v 1.6 1 1.6
v -1.6 1 1.5
v -1.5 1 1.5
v -0.0999999 1 1.5
v 1.19209e-07 1 1.5
v 1.5 1 1.5
v 1.6 1 1.5
v -1.6 1 -0.1
v -1.5 1 -0.1
v -0.0999999 1 -0.1
v 1.19209e-07 1 -0.1
v 1.5 1 -0.1
v 1.6 1 -0.1
v -1.6 1 -0.2
v -1.5 1 -0.2
v -0.0999999 1 -0.2
v 1.19209e-07 1 -0.2
v 1.5 1 -0.2
v 1.6 1 -0.2
v -1.6 1 -1.5
v -1.5 1 -1.5
v -0.0999999 1 -1.5
v 1.19209e-07 1 -1.5
v 1.5 1 -1.5
v 1.6 1 -1.5
v -1.6 1 -1.6
v -1.5 1 -1.6
v -0.0999999 1 -1.6
v 1.19209e-07 1 -1.6
v 1.5 1 -1.6
v 1.6 1 -1.6

# faces
f 7/1/1 2/1/1 1/1/1
f 8/1/1 2/1/1 7/1/1
f 9/1/1 4/1/1 3/1/1
f 10/1/1 4/1/1 9/1/1
f 11/1/1 6/1/1 5/1/1
f 12/1/1 6/1/1 11/1/1
f 19/2/1 14/2/1 13/2/1
f 20/2/1 14/2/1 19/2/1
f 21/2/1 16/2/1 15/2/1
f 22/2/1 16/2/1 21/2/1
f 23/2/1 18/2/1 17/2/1
f 24/2/1 18/2/1 23/2/1
f 31/1/1 26/1/1 25/1/1
f 32/1/1 26/1/1 31/1/1
f 33/1/1 28/1/1 27/1/1
f 34/1/1 28/1/1 33/1/1
f 35/1/1 30/1/1 29/1/1
f 36/1/1 30/1/1 35/1/1
f 43/2/1 38/2/1 37/2/1
f 44/2/1 38/2/1 43/2/1
f 45/2/1 40/2/1 39/2/1
f 46/2/1 40/2/1 45/2/1
f 47/2/1 42/2/1 41/2/1
f 48/2/1 42/2/1 47/2/1
f 55/1/1 50/1/1 49/1/1
f 56/1/1 50/1/1 55/1/1
f 57/1/1 52/1/1 51/1/1
f 58/1/1 52/1/1 57/1/1
f 59/1/1 54/1/1 53/1/1
f 60/1/1 54/1/1 59/1/1
f 67/2/1 62/2/1 61/2/1
f 68/2/1 62/2/1 67/2/1
f 69/2/1 64/2/1 63/2/1
f 70/2/1 64/2/1 69/2/1
f 71/2/1 66/2/1 65/2/1
f 72/2/1 66/2/1 71/2/1
f 73/2/2 74/2/2 79/2/2
f 79/2/2 74/2/2 80/2/2
f 75/2/2 76/2/2 81/2/2
f 81/2/2 76/2/2 82/2/2
f 77/2/2 78/2/2 83/2/2
f 83/2/2 78/2/2 84/2/2
f 85/1/2 86/1/2 91/1/2
f 91/1/2 86/1/2 92/1/2
f 87/1/2 88/1/2 93/1/2
f 93/1/2 88/1/2 94/1/2
f 89/1/2 90/1/2 95/1/2
f 95/1/2 90/1/2 96/1/2
f 97/2/2 98/2/2 103/2/2
f 103/2/2 98/2/2 104/2/2
f 99/2/2 100/2/2 105/2/2
f 105/2/2 100/2/2 106/2/2
f 101/2/2 102/2/2 107/2/2
f 107/2/2 102/2/2 108/2/2
f 109/1/2 110/1/2 115/1/2
f 115/1/2 110/1/2 116/1/2
f 111/1/2 112/1/2 117/1/2
f 117/1/2 112/1/2 118/1/2
f 113/1/2 114/1/2 119/1/2
f 119/1/2 114/1/2 120/1/2
f 121/2/2 122/2/2 127/2/2
f 127/2/2 122/2/2 128/2/2
f 123/2/2 124/2/2 129/2/2
f 129/2/2 124/2/2 130/2/2
f 125/2/2 126/2/2 131/2/2
f 131/2/2 126/2/2 132/2/2
f 133/1/2 134/1/2 139/1/2
f 139/1/2 134/1/2 140/1/2
f 135/1/2 136/1/2 141/1/2
f 141/1/2 136/1/2 142/1/2
f 137/1/2 138/1/2 143/1/2
f 143/1/2 138/1/2 144/1/2
f 147/1/3 146/1/3 145/1/3
f 148/1/3 146/1/3 147/1/3
f 151/1/3 150/1/3 149/1/3
f 152/1/3 150/1/3 151/1/3
f 155/1/3 154/1/3 153/1/3
f 156/1/3 154/1/3 155/1/3
f 159/2/3 158/2/3 157/2/3
f 160/2/3 158/2/3 159/2/3
f 163/2/3 162/2/3 161/2/3
f 164/2/3 162/2/3 163/2/3
f 167/2/3 166/2/3 165/2/3
f 168/2/3 166/2/3 167/2/3
f 171/1/3 170/1/3 169/1/3
f 172/1/3 170/1/3 171/1/3
f 175/1/3 174/1/3 173/1/3
f 176/1/3 174/1/3 175/1/3
f 179/1/3 178/1/3 177/1/3
f 180/1/3 178/1/3 179/1/3
f 183/2/3 182/2/3 181/2/3
f 184/2/3 182/2/3 183/2/3
f 187/2/3 186/2/3 185/2/3
f 188/2/3 186/2/3 187/2/3
f 191/2/3 190/2/3 189/2/3
f 192/2/3 190/2/3 191/2/3
f 195/1/3 194/1/3 193/1/3
f 196/1/3 194/1/3 195/1/3
f 199/1/3 198/1/3 197/1/3
f 200/1/3 198/1/3 199/1/3
f 203/1/3 202/1/3 201/1/3
f 204/1/3 202/1/3 203/1/3
f 207/2/3 206/2/3 205/2/3
f 208/2/3 206/2/3 207/2/3
f 211/2/3 210/2/3 209/2/3
f 212/2/3 210/2/3 211/2/3
f 215/2/3 214/2/3 213/2/3
f 216/2/3 214/2/3 215/2/3
f 217/2/4 218/2/4 219/2/4
f 219/2/4 218/2/4 220/2/4
f 221/2/4 222/2/4 223/2/4
f 223/2/4 222/2/4 224/2/4
f 225/2/4 226/2/4 227/2/4
f 227/2/4 226/2/4 228/2/4
f 229/1/4 230/1/4 231/1/4
f 231/1/4 230/1/4 232/1/4
f 233/1/4 234/1/4 235/1/4
f 235/1/4 234/1/4 236/1/4
f 237/1/4 238/1/4 239/1/4
f 239/1/4 238/1/4 240/1/4
f 241/2/4 242/2/4 243/2/4
f 243/2/4 242/2/4 244/2/4
f 245/2/4 246/2/4 247/2/4
f 247/2/4 246/2/4 248/2/4
f 249/2/4 250/2/4 251/2/4
f 251/2/4 250/2/4 252/2/4
f 253/1/4 254/1/4 255/1/4
f 255/1/4 254/1/4 256/1/4
f 257/1/4 258/1/4 259/1/4
f 259/1/4 258/1/4 260/1/4
f 261/1/4 262/1/4 263/1/4
f 263/1/4 262/1/4 264/1/4
f 265/2/4 266/2/4 267/2/4
f 267/2/4 266/2/4 268/2/4
f 269/2/4 270/2/4 271/2/4
f 271/2/4 270/2/4 272/2/4
f 273/2/4 274/2/4 275/2/4
f 275/2/4 274/2/4 276/2/4
f 277/1/4 278/1/4 279/1/4
f 279/1/4 278/1/4 280/1/4
f 281/1/4 282/1/4 283/1/4
f 283/1/4 282/1/4 284/1/4
f 285/1/4 286/1/4 287/1/4
f 287/1/4 286/1/4 288/1/4
f 295/1/5 290/1/5 289/1/5
f 296/1/5 290/1/5 295/1/5
f 297/1/5 292/1/5 291/1/5
f 298/1/5 292/1/5 297/1/5
f 299/1/5 294/1/5 293/1/5
f 300/1/5 294/1/5 299/1/5
f 307/1/5 302/1/5 301/1/5
f 308/1/5 302/1/5 307/1/5
f 309/1/5 304/1/5 303/1/5
f 310/1/5 304/1/5 309/1/5
f 311/1/5 306/1/5 305/1/5
f 312/1/5 306/1/5 311/1/5
f 319/1/5 314/1/5 313/1/5
f 320/1/5 314/1/5 319/1/5
f 321/1/5 316/1/5 315/1/5
f 322/1/5 316/1/5 321/1/5
f 323/1/5 318/1/5 317/1/5
f 324/1/5 318/1/5 323/1/5
f 325/1/6 326/1/6 331/1/6
f 331/1/6 326/1/6 332/1/6
f 327/1/6 328/1/6 333/1/6
f 333/1/6 328/1/6 334/1/6
f 329/1/6 330/1/6 335/1/6
f 335/1/6 330/1/6 336/1/6
f 325/1/6 331/1/6 337/1/6
f 332/1/6 326/1/6 338/1/6
f 327/1/6 333/1/6 339/1/6
f 334/1/6 328/1/6 340/1/6
f 329/1/6 335/1/6 341/1/6
f 336/1/6 330/1/6 342/1/6
f 325/1/6 337/1/6 343/1/6
f 337/1/6 338/1/6 343/1/6
f 338/1/6 326/1/6 344/1/6
f 343/1/6 338/1/6 344/1/6
f 327/1/6 339/1/6 345/1/6
f 339/1/6 340/1/6 345/1/6
f 340/1/6 328/1/6 346/1/6
f 345/1/6 340/1/6 346/1/6
f 341/1/6 342/1/6 347/1/6
f 329/1/6 341/1/6 347/1/6
f 342/1/6 330/1/6 348/1/6
f 347/1/6 342/1/6 348/1/6
f 349/1/6 350/1/6 355/1/6
f 355/1/6 350/1/6 356/1/6
f 351/1/6 352/1/6 357/1/6
f 357/1/6 352/1/6 358/1/6
f 353/1/6 354/1/6 359/1/6
f 359/1/6 354/1/6 360/1/6
f 349/1/6 355/1/6 361/1/6
f 356/1/6 350/1/6 362/1/6
f 351/1/6 357/1/6 363/1/6
f 358/1/6 352/1/6 364/1/6
f 353/1/6 359/1/6 365/1/6
f 360/1/6 354/1/6 366/1/6
f 349/1/6 361/1/6 367/1/6
f 361/1/6 362/1/6 367/1/6
f 362/1/6 350/1/6 368/1/6
f 367/1/6 362/1/6 368/1/6
f 351/1/6 363/1/6 369/1/6
f 363/1/6 364/1/6 369/1/6
f 364/1/6 352/1/6 370/1/6
f 369/1/6 364/1/6 370/1/6
f 365/1/6 366/1/6 371/1/6
f 353/1/6 365/1/6 371/1/6
f 366/1/6 354/1/6 372/1/6
f 371/1/6 366/1/6 372/1/6
f 373/1/6 374/1/6 379/1/6
f 379/1/6 374/1/6 380/1/6
f 375/1/6 376/1/6 381/1/6
f 381/1/6 376/1/6 382/1/6
f 377/1/6 378/1/6 383/1/6
f 383/1/6 378/1/6 384/1/6
f 373/1/6 379/1/6 385/1/6
f 380/1/6 374/1/6 386/1/6
f 375/1/6 381/1/6 387/1/6
f 382/1/6 376/1/6 388/1/6
f 377/1/6 383/1/6 389/1/6
f 384/1/6 378/1/6 390/1/6
f 373/1/6 385/1/6 391/1/6
f 385/1/6 386/1/6 391/1/6
f 386/1/6 374/1/6 392/1/6
f 391/1/6 386/1/6 392/1/6
f 375/1/6 387/1/6 393/1/6
f 387/1/6 388/1/6 393/1/6
f 388/1/6 376/1/6 394/1/6
f 393/1/6 388/1/6 394/1/6
f 389/1/6 390/1/6 395/1/6
f 377/1/6 389/1/6 395/1/6
f 390/1/6 378/1/6 396/1/6
f 395/1/6 390/1/6 396/1/6
f 397/2/6 398/2/6 403/2/6
f 403/2/6 398/2/6 404/2/6
f 399/2/6 400/2/6 405/2/6
f 405/2/6 400/2/6 406/2/6
f 401/2/6 402/2/6 407/2/6
f 407/2/6 402/2/6 408/2/6
f 409/2/6 410/2/6 415/2/6
f 415/2/6 410/2/6 416/2/6
f 411/2/6 412/2/6 417/2/6
f 417/2/6 412/2/6 418/2/6
f 413/2/6 414/2/6 419/2/6
f 419/2/6 414/2/6 420/2/6
f 421/2/6 422/2/6 427/2/6
f 427/2/6 422/2/6 428/2/6
f 423/2/6 424/2/6 429/2/6
f 429/2/6 424/2/6 430/2/6
f 425/2/6 426/2/6 431/2/6
f 431/2/6 426/2/6 432/2/6
