# MagicaVoxel @ Ephtracy

# group
o 

# material
mtllib лод для морковки топ.mtl
usemtl palette

# normals
vn -1 0 0
vn 1 0 0
vn 0 0 1
vn 0 0 -1
vn 0 -1 0
vn 0 1 0

# texcoords
vt 0.0917969 0.5
vt 0.904297 0.5

# verts
v -2.4 0.2 2.2
v -2.4 0.2 1.5
v -2.4 0.2 0.3
v -2.4 0.2 -0.4
v -2.4 0.2 -1.6
v -2.4 0.2 -2.3
v -2.4 0.7 2.2
v -2.4 0.7 1.5
v -2.4 0.7 0.3
v -2.4 0.7 -0.4
v -2.4 0.7 -1.6
v -2.4 0.7 -2.3
v -2.3 0.7 2.1
v -2.3 0.7 1.6
v -2.3 0.7 0.2
v -2.3 0.7 -0.3
v -2.3 0.7 -1.7
v -2.3 0.7 -2.2
v -2.3 0.8 2.1
v -2.3 0.8 1.6
v -2.3 0.8 0.2
v -2.3 0.8 -0.3
v -2.3 0.8 -1.7
v -2.3 0.8 -2.2
v -2.2 0.8 2
v -2.2 0.8 1.7
v -2.2 0.8 0.0999999
v -2.2 0.8 -0.2
v -2.2 0.8 -1.8
v -2.2 0.8 -2.1
v -2.2 2.5 2
v -2.2 2.5 1.7
v -2.2 2.5 0.0999999
v -2.2 2.5 -0.2
v -2.2 2.5 -1.8
v -2.2 2.5 -2.1
v -0.4 0.2 2.2
v -0.4 0.2 1.5
v -0.4 0.2 0.3
v -0.4 0.2 -0.4
v -0.4 0.2 -1.6
v -0.4 0.2 -2.3
v -0.4 0.7 2.2
v -0.4 0.7 1.5
v -0.4 0.7 0.3
v -0.4 0.7 -0.4
v -0.4 0.7 -1.6
v -0.4 0.7 -2.3
v -0.3 0.7 2.1
v -0.3 0.7 1.6
v -0.3 0.7 0.2
v -0.3 0.7 -0.3
v -0.3 0.7 -1.7
v -0.3 0.7 -2.2
v -0.3 0.8 2.1
v -0.3 0.8 1.6
v -0.3 0.8 0.2
v -0.3 0.8 -0.3
v -0.3 0.8 -1.7
v -0.3 0.8 -2.2
v -0.2 0.8 2
v -0.2 0.8 1.7
v -0.2 0.8 0.0999999
v -0.2 0.8 -0.2
v -0.2 0.8 -1.8
v -0.2 0.8 -2.1
v -0.2 2.5 2
v -0.2 2.5 1.7
v -0.2 2.5 0.0999999
v -0.2 2.5 -0.2
v -0.2 2.5 -1.8
v -0.2 2.5 -2.1
v 1.5 0.2 2.2
v 1.5 0.2 1.5
v 1.5 0.2 0.3
v 1.5 0.2 -0.4
v 1.5 0.2 -1.6
v 1.5 0.2 -2.3
v 1.5 0.7 2.2
v 1.5 0.7 1.5
v 1.5 0.7 0.3
v 1.5 0.7 -0.4
v 1.5 0.7 -1.6
v 1.5 0.7 -2.3
v 1.6 0.7 2.1
v 1.6 0.7 1.6
v 1.6 0.7 0.2
v 1.6 0.7 -0.3
v 1.6 0.7 -1.7
v 1.6 0.7 -2.2
v 1.6 0.8 2.1
v 1.6 0.8 1.6
v 1.6 0.8 0.2
v 1.6 0.8 -0.3
v 1.6 0.8 -1.7
v 1.6 0.8 -2.2
v 1.7 0.8 2
v 1.7 0.8 1.7
v 1.7 0.8 0.0999999
v 1.7 0.8 -0.2
v 1.7 0.8 -1.8
v 1.7 0.8 -2.1
v 1.7 2.5 2
v 1.7 2.5 1.7
v 1.7 2.5 0.0999999
v 1.7 2.5 -0.2
v 1.7 2.5 -1.8
v 1.7 2.5 -2.1
v -1.9 0.8 2
v -1.9 0.8 1.7
v -1.9 0.8 0.0999999
v -1.9 0.8 -0.2
v -1.9 0.8 -1.8
v -1.9 0.8 -2.1
v -1.9 2.5 2
v -1.9 2.5 1.7
v -1.9 2.5 0.0999999
v -1.9 2.5 -0.2
v -1.9 2.5 -1.8
v -1.9 2.5 -2.1
v -1.8 0.7 2.1
v -1.8 0.7 1.6
v -1.8 0.7 0.2
v -1.8 0.7 -0.3
v -1.8 0.7 -1.7
v -1.8 0.7 -2.2
v -1.8 0.8 2.1
v -1.8 0.8 1.6
v -1.8 0.8 0.2
v -1.8 0.8 -0.3
v -1.8 0.8 -1.7
v -1.8 0.8 -2.2
v -1.7 0.2 2.2
v -1.7 0.2 1.5
v -1.7 0.2 0.3
v -1.7 0.2 -0.4
v -1.7 0.2 -1.6
v -1.7 0.2 -2.3
v -1.7 0.7 2.2
v -1.7 0.7 1.5
v -1.7 0.7 0.3
v -1.7 0.7 -0.4
v -1.7 0.7 -1.6
v -1.7 0.7 -2.3
v 0.1 0.8 2
v 0.1 0.8 1.7
v 0.1 0.8 0.0999999
v 0.1 0.8 -0.2
v 0.1 0.8 -1.8
v 0.1 0.8 -2.1
v 0.1 2.5 2
v 0.1 2.5 1.7
v 0.1 2.5 0.0999999
v 0.1 2.5 -0.2
v 0.1 2.5 -1.8
v 0.1 2.5 -2.1
v 0.2 0.7 2.1
v 0.2 0.7 1.6
v 0.2 0.7 0.2
v 0.2 0.7 -0.3
v 0.2 0.7 -1.7
v 0.2 0.7 -2.2
v 0.2 0.8 2.1
v 0.2 0.8 1.6
v 0.2 0.8 0.2
v 0.2 0.8 -0.3
v 0.2 0.8 -1.7
v 0.2 0.8 -2.2
v 0.3 0.2 2.2
v 0.3 0.2 1.5
v 0.3 0.2 0.3
v 0.3 0.2 -0.4
v 0.3 0.2 -1.6
v 0.3 0.2 -2.3
v 0.3 0.7 2.2
v 0.3 0.7 1.5
v 0.3 0.7 0.3
v 0.3 0.7 -0.4
v 0.3 0.7 -1.6
v 0.3 0.7 -2.3
v 2 0.8 2
v 2 0.8 1.7
v 2 0.8 0.0999999
v 2 0.8 -0.2
v 2 0.8 -1.8
v 2 0.8 -2.1
v 2 2.5 2
v 2 2.5 1.7
v 2 2.5 0.0999999
v 2 2.5 -0.2
v 2 2.5 -1.8
v 2 2.5 -2.1
v 2.1 0.7 2.1
v 2.1 0.7 1.6
v 2.1 0.7 0.2
v 2.1 0.7 -0.3
v 2.1 0.7 -1.7
v 2.1 0.7 -2.2
v 2.1 0.8 2.1
v 2.1 0.8 1.6
v 2.1 0.8 0.2
v 2.1 0.8 -0.3
v 2.1 0.8 -1.7
v 2.1 0.8 -2.2
v 2.2 0.2 2.2
v 2.2 0.2 1.5
v 2.2 0.2 0.3
v 2.2 0.2 -0.4
v 2.2 0.2 -1.6
v 2.2 0.2 -2.3
v 2.2 0.7 2.2
v 2.2 0.7 1.5
v 2.2 0.7 0.3
v 2.2 0.7 -0.4
v 2.2 0.7 -1.6
v 2.2 0.7 -2.3
v -2.4 0.2 2.2
v -2.4 0.7 2.2
v -1.7 0.2 2.2
v -1.7 0.7 2.2
v -0.4 0.2 2.2
v -0.4 0.7 2.2
v 0.3 0.2 2.2
v 0.3 0.7 2.2
v 1.5 0.2 2.2
v 1.5 0.7 2.2
v 2.2 0.2 2.2
v 2.2 0.7 2.2
v -2.3 0.7 2.1
v -2.3 0.8 2.1
v -1.8 0.7 2.1
v -1.8 0.8 2.1
v -0.3 0.7 2.1
v -0.3 0.8 2.1
v 0.2 0.7 2.1
v 0.2 0.8 2.1
v 1.6 0.7 2.1
v 1.6 0.8 2.1
v 2.1 0.7 2.1
v 2.1 0.8 2.1
v -2.2 0.8 2
v -2.2 2.5 2
v -1.9 0.8 2
v -1.9 2.5 2
v -0.2 0.8 2
v -0.2 2.5 2
v 0.1 0.8 2
v 0.1 2.5 2
v 1.7 0.8 2
v 1.7 2.5 2
v 2 0.8 2
v 2 2.5 2
v -2.4 0.2 0.3
v -2.4 0.7 0.3
v -1.7 0.2 0.3
v -1.7 0.7 0.3
v -0.4 0.2 0.3
v -0.4 0.7 0.3
v 0.3 0.2 0.3
v 0.3 0.7 0.3
v 1.5 0.2 0.3
v 1.5 0.7 0.3
v 2.2 0.2 0.3
v 2.2 0.7 0.3
v -2.3 0.7 0.2
v -2.3 0.8 0.2
v -1.8 0.7 0.2
v -1.8 0.8 0.2
v -0.3 0.7 0.2
v -0.3 0.8 0.2
v 0.2 0.7 0.2
v 0.2 0.8 0.2
v 1.6 0.7 0.2
v 1.6 0.8 0.2
v 2.1 0.7 0.2
v 2.1 0.8 0.2
v -2.2 0.8 0.0999999
v -2.2 2.5 0.0999999
v -1.9 0.8 0.0999999
v -1.9 2.5 0.0999999
v -0.2 0.8 0.0999999
v -0.2 2.5 0.0999999
v 0.1 0.8 0.0999999
v 0.1 2.5 0.0999999
v 1.7 0.8 0.0999999
v 1.7 2.5 0.0999999
v 2 0.8 0.0999999
v 2 2.5 0.0999999
v -2.4 0.2 -1.6
v -2.4 0.7 -1.6
v -1.7 0.2 -1.6
v -1.7 0.7 -1.6
v -0.4 0.2 -1.6
v -0.4 0.7 -1.6
v 0.3 0.2 -1.6
v 0.3 0.7 -1.6
v 1.5 0.2 -1.6
v 1.5 0.7 -1.6
v 2.2 0.2 -1.6
v 2.2 0.7 -1.6
v -2.3 0.7 -1.7
v -2.3 0.8 -1.7
v -1.8 0.7 -1.7
v -1.8 0.8 -1.7
v -0.3 0.7 -1.7
v -0.3 0.8 -1.7
v 0.2 0.7 -1.7
v 0.2 0.8 -1.7
v 1.6 0.7 -1.7
v 1.6 0.8 -1.7
v 2.1 0.7 -1.7
v 2.1 0.8 -1.7
v -2.2 0.8 -1.8
v -2.2 2.5 -1.8
v -1.9 0.8 -1.8
v -1.9 2.5 -1.8
v -0.2 0.8 -1.8
v -0.2 2.5 -1.8
v 0.1 0.8 -1.8
v 0.1 2.5 -1.8
v 1.7 0.8 -1.8
v 1.7 2.5 -1.8
v 2 0.8 -1.8
v 2 2.5 -1.8
v -2.2 0.8 1.7
v -2.2 2.5 1.7
v -1.9 0.8 1.7
v -1.9 2.5 1.7
v -0.2 0.8 1.7
v -0.2 2.5 1.7
v 0.1 0.8 1.7
v 0.1 2.5 1.7
v 1.7 0.8 1.7
v 1.7 2.5 1.7
v 2 0.8 1.7
v 2 2.5 1.7
v -2.3 0.7 1.6
v -2.3 0.8 1.6
v -1.8 0.7 1.6
v -1.8 0.8 1.6
v -0.3 0.7 1.6
v -0.3 0.8 1.6
v 0.2 0.7 1.6
v 0.2 0.8 1.6
v 1.6 0.7 1.6
v 1.6 0.8 1.6
v 2.1 0.7 1.6
v 2.1 0.8 1.6
v -2.4 0.2 1.5
v -2.4 0.7 1.5
v -1.7 0.2 1.5
v -1.7 0.7 1.5
v -0.4 0.2 1.5
v -0.4 0.7 1.5
v 0.3 0.2 1.5
v 0.3 0.7 1.5
v 1.5 0.2 1.5
v 1.5 0.7 1.5
v 2.2 0.2 1.5
v 2.2 0.7 1.5
v -2.2 0.8 -0.2
v -2.2 2.5 -0.2
v -1.9 0.8 -0.2
v -1.9 2.5 -0.2
v -0.2 0.8 -0.2
v -0.2 2.5 -0.2
v 0.1 0.8 -0.2
v 0.1 2.5 -0.2
v 1.7 0.8 -0.2
v 1.7 2.5 -0.2
v 2 0.8 -0.2
v 2 2.5 -0.2
v -2.3 0.7 -0.3
v -2.3 0.8 -0.3
v -1.8 0.7 -0.3
v -1.8 0.8 -0.3
v -0.3 0.7 -0.3
v -0.3 0.8 -0.3
v 0.2 0.7 -0.3
v 0.2 0.8 -0.3
v 1.6 0.7 -0.3
v 1.6 0.8 -0.3
v 2.1 0.7 -0.3
v 2.1 0.8 -0.3
v -2.4 0.2 -0.4
v -2.4 0.7 -0.4
v -1.7 0.2 -0.4
v -1.7 0.7 -0.4
v -0.4 0.2 -0.4
v -0.4 0.7 -0.4
v 0.3 0.2 -0.4
v 0.3 0.7 -0.4
v 1.5 0.2 -0.4
v 1.5 0.7 -0.4
v 2.2 0.2 -0.4
v 2.2 0.7 -0.4
v -2.2 0.8 -2.1
v -2.2 2.5 -2.1
v -1.9 0.8 -2.1
v -1.9 2.5 -2.1
v -0.2 0.8 -2.1
v -0.2 2.5 -2.1
v 0.1 0.8 -2.1
v 0.1 2.5 -2.1
v 1.7 0.8 -2.1
v 1.7 2.5 -2.1
v 2 0.8 -2.1
v 2 2.5 -2.1
v -2.3 0.7 -2.2
v -2.3 0.8 -2.2
v -1.8 0.7 -2.2
v -1.8 0.8 -2.2
v -0.3 0.7 -2.2
v -0.3 0.8 -2.2
v 0.2 0.7 -2.2
v 0.2 0.8 -2.2
v 1.6 0.7 -2.2
v 1.6 0.8 -2.2
v 2.1 0.7 -2.2
v 2.1 0.8 -2.2
v -2.4 0.2 -2.3
v -2.4 0.7 -2.3
v -1.7 0.2 -2.3
v -1.7 0.7 -2.3
v -0.4 0.2 -2.3
v -0.4 0.7 -2.3
v 0.3 0.2 -2.3
v 0.3 0.7 -2.3
v 1.5 0.2 -2.3
v 1.5 0.7 -2.3
v 2.2 0.2 -2.3
v 2.2 0.7 -2.3
v -2.4 0.2 2.2
v -1.7 0.2 2.2
v -0.4 0.2 2.2
v 0.3 0.2 2.2
v 1.5 0.2 2.2
v 2.2 0.2 2.2
v -2.4 0.2 1.5
v -1.7 0.2 1.5
v -0.4 0.2 1.5
v 0.3 0.2 1.5
v 1.5 0.2 1.5
v 2.2 0.2 1.5
v -2.4 0.2 0.3
v -1.7 0.2 0.3
v -0.4 0.2 0.3
v 0.3 0.2 0.3
v 1.5 0.2 0.3
v 2.2 0.2 0.3
v -2.4 0.2 -0.4
v -1.7 0.2 -0.4
v -0.4 0.2 -0.4
v 0.3 0.2 -0.4
v 1.5 0.2 -0.4
v 2.2 0.2 -0.4
v -2.4 0.2 -1.6
v -1.7 0.2 -1.6
v -0.4 0.2 -1.6
v 0.3 0.2 -1.6
v 1.5 0.2 -1.6
v 2.2 0.2 -1.6
v -2.4 0.2 -2.3
v -1.7 0.2 -2.3
v -0.4 0.2 -2.3
v 0.3 0.2 -2.3
v 1.5 0.2 -2.3
v 2.2 0.2 -2.3
v -2.4 0.7 2.2
v -1.7 0.7 2.2
v -0.4 0.7 2.2
v 0.3 0.7 2.2
v 1.5 0.7 2.2
v 2.2 0.7 2.2
v -2.3 0.7 2.1
v -1.8 0.7 2.1
v -0.3 0.7 2.1
v 0.2 0.7 2.1
v 1.6 0.7 2.1
v 2.1 0.7 2.1
v -2.3 0.7 1.6
v -1.8 0.7 1.6
v -0.3 0.7 1.6
v 0.2 0.7 1.6
v 1.6 0.7 1.6
v 2.1 0.7 1.6
v -2.4 0.7 1.5
v -1.7 0.7 1.5
v -0.4 0.7 1.5
v 0.3 0.7 1.5
v 1.5 0.7 1.5
v 2.2 0.7 1.5
v -2.4 0.7 0.3
v -1.7 0.7 0.3
v -0.4 0.7 0.3
v 0.3 0.7 0.3
v 1.5 0.7 0.3
v 2.2 0.7 0.3
v -2.3 0.7 0.2
v -1.8 0.7 0.2
v -0.3 0.7 0.2
v 0.2 0.7 0.2
v 1.6 0.7 0.2
v 2.1 0.7 0.2
v -2.3 0.7 -0.3
v -1.8 0.7 -0.3
v -0.3 0.7 -0.3
v 0.2 0.7 -0.3
v 1.6 0.7 -0.3
v 2.1 0.7 -0.3
v -2.4 0.7 -0.4
v -1.7 0.7 -0.4
v -0.4 0.7 -0.4
v 0.3 0.7 -0.4
v 1.5 0.7 -0.4
v 2.2 0.7 -0.4
v -2.4 0.7 -1.6
v -1.7 0.7 -1.6
v -0.4 0.7 -1.6
v 0.3 0.7 -1.6
v 1.5 0.7 -1.6
v 2.2 0.7 -1.6
v -2.3 0.7 -1.7
v -1.8 0.7 -1.7
v -0.3 0.7 -1.7
v 0.2 0.7 -1.7
v 1.6 0.7 -1.7
v 2.1 0.7 -1.7
v -2.3 0.7 -2.2
v -1.8 0.7 -2.2
v -0.3 0.7 -2.2
v 0.2 0.7 -2.2
v 1.6 0.7 -2.2
v 2.1 0.7 -2.2
v -2.4 0.7 -2.3
v -1.7 0.7 -2.3
v -0.4 0.7 -2.3
v 0.3 0.7 -2.3
v 1.5 0.7 -2.3
v 2.2 0.7 -2.3
v -2.3 0.8 2.1
v -1.8 0.8 2.1
v -0.3 0.8 2.1
v 0.2 0.8 2.1
v 1.6 0.8 2.1
v 2.1 0.8 2.1
v -2.2 0.8 2
v -1.9 0.8 2
v -0.2 0.8 2
v 0.1 0.8 2
v 1.7 0.8 2
v 2 0.8 2
v -2.2 0.8 1.7
v -1.9 0.8 1.7
v -0.2 0.8 1.7
v 0.1 0.8 1.7
v 1.7 0.8 1.7
v 2 0.8 1.7
v -2.3 0.8 1.6
v -1.8 0.8 1.6
v -0.3 0.8 1.6
v 0.2 0.8 1.6
v 1.6 0.8 1.6
v 2.1 0.8 1.6
v -2.3 0.8 0.2
v -1.8 0.8 0.2
v -0.3 0.8 0.2
v 0.2 0.8 0.2
v 1.6 0.8 0.2
v 2.1 0.8 0.2
v -2.2 0.8 0.0999999
v -1.9 0.8 0.0999999
v -0.2 0.8 0.0999999
v 0.1 0.8 0.0999999
v 1.7 0.8 0.0999999
v 2 0.8 0.0999999
v -2.2 0.8 -0.2
v -1.9 0.8 -0.2
v -0.2 0.8 -0.2
v 0.1 0.8 -0.2
v 1.7 0.8 -0.2
v 2 0.8 -0.2
v -2.3 0.8 -0.3
v -1.8 0.8 -0.3
v -0.3 0.8 -0.3
v 0.2 0.8 -0.3
v 1.6 0.8 -0.3
v 2.1 0.8 -0.3
v -2.3 0.8 -1.7
v -1.8 0.8 -1.7
v -0.3 0.8 -1.7
v 0.2 0.8 -1.7
v 1.6 0.8 -1.7
v 2.1 0.8 -1.7
v -2.2 0.8 -1.8
v -1.9 0.8 -1.8
v -0.2 0.8 -1.8
v 0.1 0.8 -1.8
v 1.7 0.8 -1.8
v 2 0.8 -1.8
v -2.2 0.8 -2.1
v -1.9 0.8 -2.1
v -0.2 0.8 -2.1
v 0.1 0.8 -2.1
v 1.7 0.8 -2.1
v 2 0.8 -2.1
v -2.3 0.8 -2.2
v -1.8 0.8 -2.2
v -0.3 0.8 -2.2
v 0.2 0.8 -2.2
v 1.6 0.8 -2.2
v 2.1 0.8 -2.2
v -2.2 2.5 2
v -1.9 2.5 2
v -0.2 2.5 2
v 0.1 2.5 2
v 1.7 2.5 2
v 2 2.5 2
v -2.2 2.5 1.7
v -1.9 2.5 1.7
v -0.2 2.5 1.7
v 0.1 2.5 1.7
v 1.7 2.5 1.7
v 2 2.5 1.7
v -2.2 2.5 0.0999999
v -1.9 2.5 0.0999999
v -0.2 2.5 0.0999999
v 0.1 2.5 0.0999999
v 1.7 2.5 0.0999999
v 2 2.5 0.0999999
v -2.2 2.5 -0.2
v -1.9 2.5 -0.2
v -0.2 2.5 -0.2
v 0.1 2.5 -0.2
v 1.7 2.5 -0.2
v 2 2.5 -0.2
v -2.2 2.5 -1.8
v -1.9 2.5 -1.8
v -0.2 2.5 -1.8
v 0.1 2.5 -1.8
v 1.7 2.5 -1.8
v 2 2.5 -1.8
v -2.2 2.5 -2.1
v -1.9 2.5 -2.1
v -0.2 2.5 -2.1
v 0.1 2.5 -2.1
v 1.7 2.5 -2.1
v 2 2.5 -2.1

# faces
f 7/1/1 2/1/1 1/1/1
f 8/1/1 2/1/1 7/1/1
f 9/1/1 4/1/1 3/1/1
f 10/1/1 4/1/1 9/1/1
f 11/1/1 6/1/1 5/1/1
f 12/1/1 6/1/1 11/1/1
f 19/2/1 14/2/1 13/2/1
f 20/2/1 14/2/1 19/2/1
f 21/2/1 16/2/1 15/2/1
f 22/2/1 16/2/1 21/2/1
f 23/2/1 18/2/1 17/2/1
f 24/2/1 18/2/1 23/2/1
f 31/2/1 26/2/1 25/2/1
f 32/2/1 26/2/1 31/2/1
f 33/2/1 28/2/1 27/2/1
f 34/2/1 28/2/1 33/2/1
f 35/2/1 30/2/1 29/2/1
f 36/2/1 30/2/1 35/2/1
f 43/1/1 38/1/1 37/1/1
f 44/1/1 38/1/1 43/1/1
f 45/1/1 40/1/1 39/1/1
f 46/1/1 40/1/1 45/1/1
f 47/1/1 42/1/1 41/1/1
f 48/1/1 42/1/1 47/1/1
f 55/2/1 50/2/1 49/2/1
f 56/2/1 50/2/1 55/2/1
f 57/2/1 52/2/1 51/2/1
f 58/2/1 52/2/1 57/2/1
f 59/2/1 54/2/1 53/2/1
f 60/2/1 54/2/1 59/2/1
f 67/2/1 62/2/1 61/2/1
f 68/2/1 62/2/1 67/2/1
f 69/2/1 64/2/1 63/2/1
f 70/2/1 64/2/1 69/2/1
f 71/2/1 66/2/1 65/2/1
f 72/2/1 66/2/1 71/2/1
f 79/1/1 74/1/1 73/1/1
f 80/1/1 74/1/1 79/1/1
f 81/1/1 76/1/1 75/1/1
f 82/1/1 76/1/1 81/1/1
f 83/1/1 78/1/1 77/1/1
f 84/1/1 78/1/1 83/1/1
f 91/2/1 86/2/1 85/2/1
f 92/2/1 86/2/1 91/2/1
f 93/2/1 88/2/1 87/2/1
f 94/2/1 88/2/1 93/2/1
f 95/2/1 90/2/1 89/2/1
f 96/2/1 90/2/1 95/2/1
f 103/2/1 98/2/1 97/2/1
f 104/2/1 98/2/1 103/2/1
f 105/2/1 100/2/1 99/2/1
f 106/2/1 100/2/1 105/2/1
f 107/2/1 102/2/1 101/2/1
f 108/2/1 102/2/1 107/2/1
f 109/2/2 110/2/2 115/2/2
f 115/2/2 110/2/2 116/2/2
f 111/2/2 112/2/2 117/2/2
f 117/2/2 112/2/2 118/2/2
f 113/2/2 114/2/2 119/2/2
f 119/2/2 114/2/2 120/2/2
f 121/2/2 122/2/2 127/2/2
f 127/2/2 122/2/2 128/2/2
f 123/2/2 124/2/2 129/2/2
f 129/2/2 124/2/2 130/2/2
f 125/2/2 126/2/2 131/2/2
f 131/2/2 126/2/2 132/2/2
f 133/1/2 134/1/2 139/1/2
f 139/1/2 134/1/2 140/1/2
f 135/1/2 136/1/2 141/1/2
f 141/1/2 136/1/2 142/1/2
f 137/1/2 138/1/2 143/1/2
f 143/1/2 138/1/2 144/1/2
f 145/2/2 146/2/2 151/2/2
f 151/2/2 146/2/2 152/2/2
f 147/2/2 148/2/2 153/2/2
f 153/2/2 148/2/2 154/2/2
f 149/2/2 150/2/2 155/2/2
f 155/2/2 150/2/2 156/2/2
f 157/2/2 158/2/2 163/2/2
f 163/2/2 158/2/2 164/2/2
f 159/2/2 160/2/2 165/2/2
f 165/2/2 160/2/2 166/2/2
f 161/2/2 162/2/2 167/2/2
f 167/2/2 162/2/2 168/2/2
f 169/1/2 170/1/2 175/1/2
f 175/1/2 170/1/2 176/1/2
f 171/1/2 172/1/2 177/1/2
f 177/1/2 172/1/2 178/1/2
f 173/1/2 174/1/2 179/1/2
f 179/1/2 174/1/2 180/1/2
f 181/2/2 182/2/2 187/2/2
f 187/2/2 182/2/2 188/2/2
f 183/2/2 184/2/2 189/2/2
f 189/2/2 184/2/2 190/2/2
f 185/2/2 186/2/2 191/2/2
f 191/2/2 186/2/2 192/2/2
f 193/2/2 194/2/2 199/2/2
f 199/2/2 194/2/2 200/2/2
f 195/2/2 196/2/2 201/2/2
f 201/2/2 196/2/2 202/2/2
f 197/2/2 198/2/2 203/2/2
f 203/2/2 198/2/2 204/2/2
f 205/1/2 206/1/2 211/1/2
f 211/1/2 206/1/2 212/1/2
f 207/1/2 208/1/2 213/1/2
f 213/1/2 208/1/2 214/1/2
f 209/1/2 210/1/2 215/1/2
f 215/1/2 210/1/2 216/1/2
f 219/1/3 218/1/3 217/1/3
f 220/1/3 218/1/3 219/1/3
f 223/1/3 222/1/3 221/1/3
f 224/1/3 222/1/3 223/1/3
f 227/1/3 226/1/3 225/1/3
f 228/1/3 226/1/3 227/1/3
f 231/2/3 230/2/3 229/2/3
f 232/2/3 230/2/3 231/2/3
f 235/2/3 234/2/3 233/2/3
f 236/2/3 234/2/3 235/2/3
f 239/2/3 238/2/3 237/2/3
f 240/2/3 238/2/3 239/2/3
f 243/2/3 242/2/3 241/2/3
f 244/2/3 242/2/3 243/2/3
f 247/2/3 246/2/3 245/2/3
f 248/2/3 246/2/3 247/2/3
f 251/2/3 250/2/3 249/2/3
f 252/2/3 250/2/3 251/2/3
f 255/1/3 254/1/3 253/1/3
f 256/1/3 254/1/3 255/1/3
f 259/1/3 258/1/3 257/1/3
f 260/1/3 258/1/3 259/1/3
f 263/1/3 262/1/3 261/1/3
f 264/1/3 262/1/3 263/1/3
f 267/2/3 266/2/3 265/2/3
f 268/2/3 266/2/3 267/2/3
f 271/2/3 270/2/3 269/2/3
f 272/2/3 270/2/3 271/2/3
f 275/2/3 274/2/3 273/2/3
f 276/2/3 274/2/3 275/2/3
f 279/2/3 278/2/3 277/2/3
f 280/2/3 278/2/3 279/2/3
f 283/2/3 282/2/3 281/2/3
f 284/2/3 282/2/3 283/2/3
f 287/2/3 286/2/3 285/2/3
f 288/2/3 286/2/3 287/2/3
f 291/1/3 290/1/3 289/1/3
f 292/1/3 290/1/3 291/1/3
f 295/1/3 294/1/3 293/1/3
f 296/1/3 294/1/3 295/1/3
f 299/1/3 298/1/3 297/1/3
f 300/1/3 298/1/3 299/1/3
f 303/2/3 302/2/3 301/2/3
f 304/2/3 302/2/3 303/2/3
f 307/2/3 306/2/3 305/2/3
f 308/2/3 306/2/3 307/2/3
f 311/2/3 310/2/3 309/2/3
f 312/2/3 310/2/3 311/2/3
f 315/2/3 314/2/3 313/2/3
f 316/2/3 314/2/3 315/2/3
f 319/2/3 318/2/3 317/2/3
f 320/2/3 318/2/3 319/2/3
f 323/2/3 322/2/3 321/2/3
f 324/2/3 322/2/3 323/2/3
f 325/2/4 326/2/4 327/2/4
f 327/2/4 326/2/4 328/2/4
f 329/2/4 330/2/4 331/2/4
f 331/2/4 330/2/4 332/2/4
f 333/2/4 334/2/4 335/2/4
f 335/2/4 334/2/4 336/2/4
f 337/2/4 338/2/4 339/2/4
f 339/2/4 338/2/4 340/2/4
f 341/2/4 342/2/4 343/2/4
f 343/2/4 342/2/4 344/2/4
f 345/2/4 346/2/4 347/2/4
f 347/2/4 346/2/4 348/2/4
f 349/1/4 350/1/4 351/1/4
f 351/1/4 350/1/4 352/1/4
f 353/1/4 354/1/4 355/1/4
f 355/1/4 354/1/4 356/1/4
f 357/1/4 358/1/4 359/1/4
f 359/1/4 358/1/4 360/1/4
f 361/2/4 362/2/4 363/2/4
f 363/2/4 362/2/4 364/2/4
f 365/2/4 366/2/4 367/2/4
f 367/2/4 366/2/4 368/2/4
f 369/2/4 370/2/4 371/2/4
f 371/2/4 370/2/4 372/2/4
f 373/2/4 374/2/4 375/2/4
f 375/2/4 374/2/4 376/2/4
f 377/2/4 378/2/4 379/2/4
f 379/2/4 378/2/4 380/2/4
f 381/2/4 382/2/4 383/2/4
f 383/2/4 382/2/4 384/2/4
f 385/1/4 386/1/4 387/1/4
f 387/1/4 386/1/4 388/1/4
f 389/1/4 390/1/4 391/1/4
f 391/1/4 390/1/4 392/1/4
f 393/1/4 394/1/4 395/1/4
f 395/1/4 394/1/4 396/1/4
f 397/2/4 398/2/4 399/2/4
f 399/2/4 398/2/4 400/2/4
f 401/2/4 402/2/4 403/2/4
f 403/2/4 402/2/4 404/2/4
f 405/2/4 406/2/4 407/2/4
f 407/2/4 406/2/4 408/2/4
f 409/2/4 410/2/4 411/2/4
f 411/2/4 410/2/4 412/2/4
f 413/2/4 414/2/4 415/2/4
f 415/2/4 414/2/4 416/2/4
f 417/2/4 418/2/4 419/2/4
f 419/2/4 418/2/4 420/2/4
f 421/1/4 422/1/4 423/1/4
f 423/1/4 422/1/4 424/1/4
f 425/1/4 426/1/4 427/1/4
f 427/1/4 426/1/4 428/1/4
f 429/1/4 430/1/4 431/1/4
f 431/1/4 430/1/4 432/1/4
f 439/1/5 434/1/5 433/1/5
f 440/1/5 434/1/5 439/1/5
f 441/1/5 436/1/5 435/1/5
f 442/1/5 436/1/5 441/1/5
f 443/1/5 438/1/5 437/1/5
f 444/1/5 438/1/5 443/1/5
f 451/1/5 446/1/5 445/1/5
f 452/1/5 446/1/5 451/1/5
f 453/1/5 448/1/5 447/1/5
f 454/1/5 448/1/5 453/1/5
f 455/1/5 450/1/5 449/1/5
f 456/1/5 450/1/5 455/1/5
f 463/1/5 458/1/5 457/1/5
f 464/1/5 458/1/5 463/1/5
f 465/1/5 460/1/5 459/1/5
f 466/1/5 460/1/5 465/1/5
f 467/1/5 462/1/5 461/1/5
f 468/1/5 462/1/5 467/1/5
f 469/1/6 470/1/6 475/1/6
f 475/1/6 470/1/6 476/1/6
f 471/1/6 472/1/6 477/1/6
f 477/1/6 472/1/6 478/1/6
f 473/1/6 474/1/6 479/1/6
f 479/1/6 474/1/6 480/1/6
f 469/1/6 475/1/6 481/1/6
f 476/1/6 470/1/6 482/1/6
f 471/1/6 477/1/6 483/1/6
f 478/1/6 472/1/6 484/1/6
f 473/1/6 479/1/6 485/1/6
f 480/1/6 474/1/6 486/1/6
f 469/1/6 481/1/6 487/1/6
f 481/1/6 482/1/6 487/1/6
f 482/1/6 470/1/6 488/1/6
f 487/1/6 482/1/6 488/1/6
f 471/1/6 483/1/6 489/1/6
f 483/1/6 484/1/6 489/1/6
f 484/1/6 472/1/6 490/1/6
f 489/1/6 484/1/6 490/1/6
f 485/1/6 486/1/6 491/1/6
f 473/1/6 485/1/6 491/1/6
f 486/1/6 474/1/6 492/1/6
f 491/1/6 486/1/6 492/1/6
f 493/1/6 494/1/6 499/1/6
f 499/1/6 494/1/6 500/1/6
f 495/1/6 496/1/6 501/1/6
f 501/1/6 496/1/6 502/1/6
f 497/1/6 498/1/6 503/1/6
f 503/1/6 498/1/6 504/1/6
f 493/1/6 499/1/6 505/1/6
f 500/1/6 494/1/6 506/1/6
f 495/1/6 501/1/6 507/1/6
f 502/1/6 496/1/6 508/1/6
f 497/1/6 503/1/6 509/1/6
f 504/1/6 498/1/6 510/1/6
f 493/1/6 505/1/6 511/1/6
f 505/1/6 506/1/6 511/1/6
f 506/1/6 494/1/6 512/1/6
f 511/1/6 506/1/6 512/1/6
f 495/1/6 507/1/6 513/1/6
f 507/1/6 508/1/6 513/1/6
f 508/1/6 496/1/6 514/1/6
f 513/1/6 508/1/6 514/1/6
f 509/1/6 510/1/6 515/1/6
f 497/1/6 509/1/6 515/1/6
f 510/1/6 498/1/6 516/1/6
f 515/1/6 510/1/6 516/1/6
f 517/1/6 518/1/6 523/1/6
f 523/1/6 518/1/6 524/1/6
f 519/1/6 520/1/6 525/1/6
f 525/1/6 520/1/6 526/1/6
f 521/1/6 522/1/6 527/1/6
f 527/1/6 522/1/6 528/1/6
f 517/1/6 523/1/6 529/1/6
f 524/1/6 518/1/6 530/1/6
f 519/1/6 525/1/6 531/1/6
f 526/1/6 520/1/6 532/1/6
f 521/1/6 527/1/6 533/1/6
f 528/1/6 522/1/6 534/1/6
f 517/1/6 529/1/6 535/1/6
f 529/1/6 530/1/6 535/1/6
f 530/1/6 518/1/6 536/1/6
f 535/1/6 530/1/6 536/1/6
f 519/1/6 531/1/6 537/1/6
f 531/1/6 532/1/6 537/1/6
f 532/1/6 520/1/6 538/1/6
f 537/1/6 532/1/6 538/1/6
f 533/1/6 534/1/6 539/1/6
f 521/1/6 533/1/6 539/1/6
f 534/1/6 522/1/6 540/1/6
f 539/1/6 534/1/6 540/1/6
f 541/2/6 542/2/6 547/2/6
f 547/2/6 542/2/6 548/2/6
f 543/2/6 544/2/6 549/2/6
f 549/2/6 544/2/6 550/2/6
f 545/2/6 546/2/6 551/2/6
f 551/2/6 546/2/6 552/2/6
f 541/2/6 547/2/6 553/2/6
f 548/2/6 542/2/6 554/2/6
f 543/2/6 549/2/6 555/2/6
f 550/2/6 544/2/6 556/2/6
f 545/2/6 551/2/6 557/2/6
f 552/2/6 546/2/6 558/2/6
f 541/2/6 553/2/6 559/2/6
f 553/2/6 554/2/6 559/2/6
f 554/2/6 542/2/6 560/2/6
f 559/2/6 554/2/6 560/2/6
f 543/2/6 555/2/6 561/2/6
f 555/2/6 556/2/6 561/2/6
f 556/2/6 544/2/6 562/2/6
f 561/2/6 556/2/6 562/2/6
f 557/2/6 558/2/6 563/2/6
f 545/2/6 557/2/6 563/2/6
f 558/2/6 546/2/6 564/2/6
f 563/2/6 558/2/6 564/2/6
f 565/2/6 566/2/6 571/2/6
f 571/2/6 566/2/6 572/2/6
f 567/2/6 568/2/6 573/2/6
f 573/2/6 568/2/6 574/2/6
f 569/2/6 570/2/6 575/2/6
f 575/2/6 570/2/6 576/2/6
f 565/2/6 571/2/6 577/2/6
f 572/2/6 566/2/6 578/2/6
f 567/2/6 573/2/6 579/2/6
f 574/2/6 568/2/6 580/2/6
f 569/2/6 575/2/6 581/2/6
f 576/2/6 570/2/6 582/2/6
f 565/2/6 577/2/6 583/2/6
f 577/2/6 578/2/6 583/2/6
f 578/2/6 566/2/6 584/2/6
f 583/2/6 578/2/6 584/2/6
f 567/2/6 579/2/6 585/2/6
f 579/2/6 580/2/6 585/2/6
f 580/2/6 568/2/6 586/2/6
f 585/2/6 580/2/6 586/2/6
f 581/2/6 582/2/6 587/2/6
f 569/2/6 581/2/6 587/2/6
f 582/2/6 570/2/6 588/2/6
f 587/2/6 582/2/6 588/2/6
f 589/2/6 590/2/6 595/2/6
f 595/2/6 590/2/6 596/2/6
f 591/2/6 592/2/6 597/2/6
f 597/2/6 592/2/6 598/2/6
f 593/2/6 594/2/6 599/2/6
f 599/2/6 594/2/6 600/2/6
f 589/2/6 595/2/6 601/2/6
f 596/2/6 590/2/6 602/2/6
f 591/2/6 597/2/6 603/2/6
f 598/2/6 592/2/6 604/2/6
f 593/2/6 599/2/6 605/2/6
f 600/2/6 594/2/6 606/2/6
f 589/2/6 601/2/6 607/2/6
f 601/2/6 602/2/6 607/2/6
f 602/2/6 590/2/6 608/2/6
f 607/2/6 602/2/6 608/2/6
f 591/2/6 603/2/6 609/2/6
f 603/2/6 604/2/6 609/2/6
f 604/2/6 592/2/6 610/2/6
f 609/2/6 604/2/6 610/2/6
f 605/2/6 606/2/6 611/2/6
f 593/2/6 605/2/6 611/2/6
f 606/2/6 594/2/6 612/2/6
f 611/2/6 606/2/6 612/2/6
f 613/2/6 614/2/6 619/2/6
f 619/2/6 614/2/6 620/2/6
f 615/2/6 616/2/6 621/2/6
f 621/2/6 616/2/6 622/2/6
f 617/2/6 618/2/6 623/2/6
f 623/2/6 618/2/6 624/2/6
f 625/2/6 626/2/6 631/2/6
f 631/2/6 626/2/6 632/2/6
f 627/2/6 628/2/6 633/2/6
f 633/2/6 628/2/6 634/2/6
f 629/2/6 630/2/6 635/2/6
f 635/2/6 630/2/6 636/2/6
f 637/2/6 638/2/6 643/2/6
f 643/2/6 638/2/6 644/2/6
f 639/2/6 640/2/6 645/2/6
f 645/2/6 640/2/6 646/2/6
f 641/2/6 642/2/6 647/2/6
f 647/2/6 642/2/6 648/2/6
